<svg width="42" height="42" viewBox="0 0 42 42" fill="none" xmlns="http://www.w3.org/2000/svg">
<path d="M34.72 38.7384H8.94C8.42 38.7384 8 38.3158 8 37.7926V7.56791C8 7.04471 8.42 6.62213 8.94 6.62213H17.76M17.76 6.62213C17.76 4.62995 19.3801 3 21.3601 3C23.3601 3 24.96 4.62995 24.96 6.62213M17.76 6.62213L14.2402 6.62207V10.0832H28.6602V6.62207L24.96 6.62213M24.96 6.62213H33.78C34.3 6.62213 34.72 7.04471 34.72 7.56791V38.5M21.8799 15.5366H31.4199M21.8799 19.0984H31.4199M21.8799 26.9663H28.1199M21.8799 30.5281H26.6599M11.6201 13.7056H18.8001V20.9297H11.6201V13.7056ZM11.6201 25.1353H18.8001V32.3594H11.6201V25.1353Z" stroke="white" stroke-width="2" stroke-miterlimit="10" stroke-linecap="round" stroke-linejoin="round"/>
</svg>
