<?xml version="1.0" encoding="utf-8"?>
<!-- Generator: Adobe Illustrator 26.5.1, SVG Export Plug-In . SVG Version: 6.00 Build 0)  -->
<svg version="1.1" id="Ebene_1" xmlns="http://www.w3.org/2000/svg" xmlns:xlink="http://www.w3.org/1999/xlink" x="0px" y="0px"
	 viewBox="0 0 1412.4 761.4" style="enable-background:new 0 0 1412.4 761.4;" xml:space="preserve">
<style type="text/css">
	.st0{fill:none;}
	.st1{fill:#F70808;}
	.st2{fill:#F70808;}
	.st3{fill: #0AA015;}
</style>
	<g id="Layer_1">
	<path class="st0" d="M441,521.3l9.3,1.7c5.7,1.1,11.4,0.8,16.7-0.6V409l-26-35.5V521.3z"/>
		<polygon class="st0" points="175.3,194 180.3,167.4 155,167.4 150,194 	"/>
		<path class="st0" d="M166.1,87.8c3.9-20.9,24-34.7,44.9-30.8l311.9,58.5l0,0c20.9,3.9,34.7,24,30.8,44.9l-58.5,311.9l0,0
		c-1.1,6.1-3.7,11.6-7.2,16.2v20v106.7l103.8-501.7c0.5-2.2-1-4.5-3.2-4.9L160.7,20.1c-0.3-0.1-0.6-0.1-0.8-0.1
		c-1,0-1.9,0.4-2.3,0.7c-0.5,0.4-1.5,1.2-1.8,2.6l-25.5,123h24.4L166.1,87.8z"/>
		<path class="st0" d="M402.5,194c21.3,0,38.5,17.2,38.5,38.5v140.9l26,35.5V171.1c0-2-1.7-3.7-3.7-3.7h-283l-5,26.7h227.2V194z"/>
		<path class="st0" d="M71.5,247.7v83.7l23.2-111.9C81.5,222.1,71.5,233.7,71.5,247.7z"/>
		<path class="st0" d="M184.3,336.8l67.3,67.3l44-26.8l120.6,113V245.9c0-14.9-12.1-27-27-27h-274l-39.1,189L184.3,336.8z M335,249.7
		c25.3,0,45.7,20.5,45.7,45.7s-20.5,45.7-45.7,45.7c-25.3,0-45.7-20.5-45.7-45.7S309.7,249.7,335,249.7z"/>
		<path class="st0" d="M46.7,550.2l-4.2,20.4c-0.3,1.5,0.3,2.6,0.6,3.1c0.4,0.5,1.2,1.5,2.6,1.8l13.6,2.8
		C51.6,571.4,46.8,561.4,46.7,550.2z"/>
		<polygon class="st0" points="150,194 155,167.4 125.9,167.4 120.4,194 	"/>
		<path class="st0" d="M221.3,104.3c-15.6-2.9-30.6,7.3-33.5,22.9l-3.6,19.2H446L221.3,104.3L221.3,104.3z"/>
		<path class="st1" d="M85.2,588.4h22.4l-48.2-10C66.1,584.6,75.2,588.4,85.2,588.4z"/>
		<g>
		<ellipse class="st2" cx="335" cy="295.4" rx="45.7" ry="45.7"/>
			<path class="st2" d="M441,373.4V232.6c0-21.3-17.2-38.5-38.5-38.5H175.3H150h-29.6H100H85.2c-21.3,0-38.5,17.2-38.5,38.5l0,0
			v219.1v98.2c0,0.1,0,0.3,0,0.4c0.1,11.2,5,21.2,12.6,28.1l48.2,10h294.9c21.3,0,38.5-17.2,38.5-38.5v-28.6L441,373.4z
			 M416.1,490.2l-120.6-113l-44,26.8l-67.3-67.3L76.1,407.9l-4.6,3v-79.6v-83.7c0-14,10-25.6,23.2-28.2c1.8-0.4,3.7-0.5,5.6-0.5h15
			h273.9c14.9,0,27,12.1,27,27L416.1,490.2L416.1,490.2z"/>
	</g>
		<path class="st1" d="M592.7,89.1l-428-88.6c-6.3-1.3-12.8-0.1-18.2,3.5s-9.1,9-10.4,15.3l-26.3,127.1H24.7
		c-13.6,0-24.7,11-24.7,24.7v565.7c0,13.6,11.1,24.7,24.7,24.7h438.7c13.6,0,24.7-11.1,24.7-24.7V680c5.3-3.6,8.9-8.9,10.1-15.1l0,0
		l113.3-547.3C614.1,104.6,605.7,91.8,592.7,89.1z M467,736.7c0,2-1.7,3.7-3.7,3.7H24.7c-2,0-3.7-1.7-3.7-3.7V171.1
		c0-2,1.7-3.7,3.7-3.7h80.8h20.4h29h25.3h283.1c2,0,3.7,1.7,3.7,3.7V409v113.5v140.3v20.4V736.7z M479.8,152.7
		c-4.4-3.9-10.2-6.3-16.5-6.3H446H184.2H180l7.8-39.2c2.9-15.6,17.9-25.9,33.5-22.9l0,0L446,126.4l59.2,11.1
		c14.6,2.7,24.3,16.8,21.5,31.5l0,0l0,0l-1.1,6L488,375.8V171.1C488,163.8,484.8,157.2,479.8,152.7z M591.8,113.6L488,615.3V508.5
		v-20c3.5-4.6,6.1-10.1,7.2-16.2l0,0l58.5-311.9c3.9-20.9-9.9-41-30.8-44.9l0,0L211.1,57c-20.9-3.9-41,9.9-44.9,30.8l-11.5,58.6
		h-24.4l25.5-123c0.3-1.5,1.3-2.3,1.8-2.6c0.4-0.3,1.2-0.7,2.3-0.7c0.3,0,0.5,0,0.8,0.1l427.9,88.6
		C590.8,109.1,592.3,111.4,591.8,113.6z"/>
</g>
	<g>
	<g>
		<g>
			<path class="st3" d="M1134.4,313.7H842.3c-38.5,0-70,31.5-70,70v236c0,38.5,31.5,70,70,70h292.1c38.5,0,70-31.5,70-70v-236
				C1204.4,344.5,1172.9,313.7,1134.4,313.7z"/>
		</g>
	</g>
		<g>
		<g>
			<path class="st3" d="M1360.6,352.2c-4.2,0.7-8.4,2.8-11.9,4.9l-109.3,63v162.5l110,63c20.3,11.9,45.5,4.9,57.4-15.4
				c3.5-6.3,5.6-13.3,5.6-21V392.8C1412.4,366.9,1387.9,345.9,1360.6,352.2z"/>
		</g>
	</g>
		<circle class="st3" cx="853" cy="217.9" r="80.7"/>
		<circle class="st3" cx="1090.9" cy="185.1" r="113.5"/>
</g>
</svg>
